<svg width="26" height="38" viewBox="0 0 26 38" fill="none" xmlns="http://www.w3.org/2000/svg">
<path d="M0.445136 1.06096C0.233628 0.55684 0.603865 0 1.15055 0C1.43589 0 1.69751 0.158798 1.8292 0.411923L10.5141 17.1054C11.0332 18.1032 11.3042 19.2114 11.3042 20.3362V35.5517C11.3042 36.8316 10.2666 37.8692 8.98672 37.8692C7.62779 37.8692 6.56048 36.7053 6.67787 35.3515L7.92527 20.9655C8.02325 19.8354 7.84516 18.6985 7.40632 17.6525L0.445136 1.06096Z" fill="#345750"/>
<path d="M13.8154 14.9616C13.6099 14.2452 13.711 13.4758 14.0944 12.8368L15.5429 10.423C16.127 9.44966 16.8868 8.59331 17.7836 7.89747L21.3915 5.09797L21.749 4.78692C22.2291 4.36923 22.9806 4.59158 23.156 5.20327C23.1906 5.32371 23.1987 5.45018 23.1798 5.57404L22.6034 9.36064C22.4074 10.6479 21.9619 11.8846 21.2918 13.0011L20.4608 14.3859C20.1319 14.934 19.673 15.3927 19.1248 15.7213L17.782 16.5262C16.2668 17.4344 14.3025 16.6595 13.8154 14.9616Z" fill="#345750"/>
</svg>
