<svg width="203" height="203" viewBox="0 0 203 203" fill="none" xmlns="http://www.w3.org/2000/svg">
<path d="M56.7134 90.5817C57.9404 89.395 59.3102 88.3373 60.7283 87.3919C63.4789 85.5582 65.9799 84.5833 67.6666 84.5833C69.3534 84.5833 71.8544 85.5582 74.605 87.3919C76.7588 88.8278 78.3974 90.3665 78.6042 90.5665C81.9148 93.7686 87.2674 93.8611 90.5643 90.5643C93.8675 87.2611 93.8675 81.9056 90.5643 78.6024C88.5779 76.6196 86.3193 74.8701 83.9887 73.3164C80.3955 70.921 74.4382 67.6667 67.6666 67.6667C60.8951 67.6667 54.9378 70.921 51.3446 73.3164C49.0164 74.8685 46.7613 76.6169 44.7753 78.5961C41.5241 81.8559 41.4977 87.2929 44.769 90.5643C48.0651 93.8604 53.4085 93.8636 56.7134 90.5817Z" fill="#406048"/>
<path d="M75.184 114.538C73.0649 110.431 68.0312 108.78 63.8858 110.853C59.7076 112.942 58.014 118.023 60.1031 122.201C60.8006 123.591 61.6888 124.895 62.6199 126.137C64.1662 128.198 66.5003 130.853 69.7857 133.482C76.4638 138.824 86.7597 143.794 101.502 143.794C116.244 143.794 126.54 138.824 133.218 133.482C136.503 130.853 138.837 128.198 140.384 126.137C141.318 124.891 142.168 123.588 142.896 122.21C144.965 118.087 143.244 112.916 139.118 110.853C134.972 108.78 129.939 110.431 127.82 114.538C127.703 114.749 126.111 117.503 122.65 120.272C118.755 123.388 112.135 126.877 101.502 126.877C90.869 126.877 84.2482 123.388 80.3534 120.272C76.8923 117.503 75.3007 114.748 75.184 114.538Z" fill="#406048"/>
<path fill-rule="evenodd" clip-rule="evenodd" d="M101.5 194.542C152.885 194.542 194.542 152.885 194.542 101.5C194.542 50.1145 152.885 8.45833 101.5 8.45833C50.1145 8.45833 8.45831 50.1145 8.45831 101.5C8.45831 152.885 50.1145 194.542 101.5 194.542ZM101.5 177.567C59.4892 177.567 25.4328 143.511 25.4328 101.5C25.4328 59.4892 59.4892 25.4328 101.5 25.4328C143.511 25.4328 177.567 59.4892 177.567 101.5C177.567 143.511 143.511 177.567 101.5 177.567Z" fill="#406048"/>
<path d="M124.38 90.5817C125.607 89.395 126.977 88.3373 128.395 87.3919C131.146 85.5582 133.647 84.5833 135.333 84.5833C137.02 84.5833 139.521 85.5582 142.272 87.3919C144.426 88.8278 146.064 90.3665 146.271 90.5665C149.582 93.7686 154.934 93.8611 158.231 90.5643C161.534 87.2611 161.534 81.9056 158.231 78.6024C156.245 76.6196 153.986 74.8701 151.655 73.3164C148.062 70.921 142.105 67.6667 135.333 67.6667C128.562 67.6667 122.604 70.921 119.011 73.3164C116.683 74.8685 114.428 76.6169 112.442 78.5961C109.191 81.8559 109.164 87.2929 112.436 90.5643C115.732 93.8604 121.075 93.8636 124.38 90.5817Z" fill="#406048"/>
</svg>
