<svg width="47" height="47" viewBox="0 0 47 47" fill="none" xmlns="http://www.w3.org/2000/svg">
<path d="M16.6458 21.5417C18.2682 21.5417 19.5833 20.2265 19.5833 18.6042C19.5833 16.9818 18.2682 15.6667 16.6458 15.6667C15.0235 15.6667 13.7083 16.9818 13.7083 18.6042C13.7083 20.2265 15.0235 21.5417 16.6458 21.5417Z" fill="#E6E6E6"/>
<path d="M33.2917 18.6042C33.2917 20.2265 31.9765 21.5417 30.3542 21.5417C28.7318 21.5417 27.4167 20.2265 27.4167 18.6042C27.4167 16.9818 28.7318 15.6667 30.3542 15.6667C31.9765 15.6667 33.2917 16.9818 33.2917 18.6042Z" fill="#E6E6E6"/>
<path d="M31.8083 29.3165C32.8576 29.0542 33.4955 27.991 33.2332 26.9417C32.9709 25.8924 31.9076 25.2545 30.8584 25.5168L15.1917 29.4335C14.1424 29.6958 13.5045 30.759 13.7668 31.8083C14.0291 32.8576 15.0924 33.4955 16.1416 33.2332L31.8083 29.3165Z" fill="#E6E6E6"/>
<path fill-rule="evenodd" clip-rule="evenodd" d="M23.5 45.0417C35.3971 45.0417 45.0417 35.3971 45.0417 23.5C45.0417 11.6029 35.3971 1.95833 23.5 1.95833C11.6029 1.95833 1.95834 11.6029 1.95834 23.5C1.95834 35.3971 11.6029 45.0417 23.5 45.0417ZM23.5 41.1116C13.7734 41.1116 5.88838 33.2266 5.88838 23.5C5.88838 13.7734 13.7734 5.88837 23.5 5.88837C33.2266 5.88837 41.1116 13.7734 41.1116 23.5C41.1116 33.2266 33.2266 41.1116 23.5 41.1116Z" fill="#E6E6E6"/>
</svg>
