<svg width="47" height="47" viewBox="0 0 47 47" fill="none" xmlns="http://www.w3.org/2000/svg">
<path d="M29.5887 32.2318C30.0793 33.1826 31.2448 33.5648 32.2045 33.0849C33.1719 32.6012 33.564 31.4249 33.0803 30.4575C32.9188 30.1357 32.7132 29.8338 32.4976 29.5464C32.1396 29.069 31.5992 28.4543 30.8386 27.8458C29.2924 26.6089 26.9086 25.4583 23.4954 25.4583C20.0822 25.4583 17.6984 26.6089 16.1523 27.8458C15.3916 28.4543 14.8512 29.069 14.4932 29.5464C14.2768 29.8349 14.08 30.1365 13.9115 30.4554C13.4325 31.4102 13.831 32.6073 14.7863 33.0849C15.746 33.5648 16.9115 33.1826 17.4021 32.2318C17.4292 32.183 17.7977 31.5453 18.599 30.9042C19.5007 30.1828 21.0336 29.375 23.4954 29.375C25.9572 29.375 27.4901 30.1828 28.3918 30.9042C29.1932 31.5453 29.5617 32.1831 29.5887 32.2318Z" fill="#E6E6E6"/>
<path d="M12.3236 14.2819C13.0884 13.5172 14.3283 13.5172 15.0931 14.2819L19.0098 18.1986C19.7745 18.9634 19.7745 20.2033 19.0098 20.9681C18.245 21.7329 17.005 21.7329 16.2403 20.9681L12.3236 17.0514C11.5588 16.2867 11.5588 15.0467 12.3236 14.2819Z" fill="#E6E6E6"/>
<path d="M34.6764 17.0514C35.4412 16.2867 35.4412 15.0467 34.6764 14.2819C33.9116 13.5172 32.6717 13.5172 31.9069 14.2819L27.9903 18.1986C27.2255 18.9634 27.2255 20.2033 27.9903 20.9681C28.755 21.7329 29.995 21.7329 30.7598 20.9681L34.6764 17.0514Z" fill="#E6E6E6"/>
<path fill-rule="evenodd" clip-rule="evenodd" d="M23.5 45.0417C35.3971 45.0417 45.0417 35.3971 45.0417 23.5C45.0417 11.6029 35.3971 1.95834 23.5 1.95834C11.6029 1.95834 1.95834 11.6029 1.95834 23.5C1.95834 35.3971 11.6029 45.0417 23.5 45.0417ZM23.5 41.1116C13.7734 41.1116 5.88838 33.2266 5.88838 23.5C5.88838 13.7734 13.7734 5.88839 23.5 5.88839C33.2266 5.88839 41.1116 13.7734 41.1116 23.5C41.1116 33.2266 33.2266 41.1116 23.5 41.1116Z" fill="#E6E6E6"/>
</svg>
