<svg width="124" height="22" viewBox="0 0 124 22" fill="none" xmlns="http://www.w3.org/2000/svg">
<rect y="20" width="115" height="2" rx="1" fill="#294030"/>
<rect x="103.5" y="1.5" width="19" height="19" rx="9.5" stroke="#294030" stroke-width="3"/>
<path d="M1.218 17V7.2H10.15V17H7.896V8.53L8.414 9.048H2.954L3.472 8.53V17H1.218ZM15.9393 17.112C15.1367 17.112 14.4227 16.944 13.7973 16.608C13.1813 16.272 12.6913 15.8147 12.3273 15.236C11.9727 14.648 11.7953 13.9807 11.7953 13.234C11.7953 12.478 11.9727 11.8107 12.3273 11.232C12.6913 10.644 13.1813 10.1867 13.7973 9.86C14.4227 9.524 15.1367 9.356 15.9393 9.356C16.7327 9.356 17.442 9.524 18.0673 9.86C18.6927 10.1867 19.1827 10.6393 19.5373 11.218C19.892 11.7967 20.0693 12.4687 20.0693 13.234C20.0693 13.9807 19.892 14.648 19.5373 15.236C19.1827 15.8147 18.6927 16.272 18.0673 16.608C17.442 16.944 16.7327 17.112 15.9393 17.112ZM15.9393 15.32C16.3033 15.32 16.63 15.236 16.9193 15.068C17.2087 14.9 17.4373 14.662 17.6053 14.354C17.7733 14.0367 17.8573 13.6633 17.8573 13.234C17.8573 12.7953 17.7733 12.422 17.6053 12.114C17.4373 11.806 17.2087 11.568 16.9193 11.4C16.63 11.232 16.3033 11.148 15.9393 11.148C15.5753 11.148 15.2487 11.232 14.9593 11.4C14.67 11.568 14.4367 11.806 14.2593 12.114C14.0913 12.422 14.0073 12.7953 14.0073 13.234C14.0073 13.6633 14.0913 14.0367 14.2593 14.354C14.4367 14.662 14.67 14.9 14.9593 15.068C15.2487 15.236 15.5753 15.32 15.9393 15.32ZM20.5101 16.986L20.6221 15.194C20.6781 15.2033 20.7341 15.2127 20.7901 15.222C20.8461 15.222 20.8974 15.222 20.9441 15.222C21.2054 15.222 21.4108 15.1473 21.5601 14.998C21.7094 14.8487 21.8214 14.648 21.8961 14.396C21.9708 14.1347 22.0221 13.8407 22.0501 13.514C22.0874 13.1873 22.1154 12.8467 22.1341 12.492L22.2461 9.468H28.6861V17H26.5021V10.728L26.9921 11.26H23.6881L24.1501 10.7L24.0521 12.59C24.0241 13.262 23.9681 13.878 23.8841 14.438C23.8094 14.998 23.6834 15.4833 23.5061 15.894C23.3288 16.2953 23.0908 16.608 22.7921 16.832C22.4934 17.0467 22.1108 17.154 21.6441 17.154C21.4761 17.154 21.2988 17.14 21.1121 17.112C20.9254 17.084 20.7248 17.042 20.5101 16.986ZM30.7863 17V9.468H32.9563V13.948L36.6243 9.468H38.6263V17H36.4563V12.52L32.8023 17H30.7863ZM40.7258 17V9.468H44.5758C45.5184 9.468 46.2558 9.64067 46.7878 9.986C47.3198 10.322 47.5858 10.798 47.5858 11.414C47.5858 12.03 47.3338 12.5153 46.8298 12.87C46.3351 13.2153 45.6771 13.388 44.8558 13.388L45.0798 12.884C45.9944 12.884 46.6758 13.052 47.1238 13.388C47.5811 13.724 47.8098 14.214 47.8098 14.858C47.8098 15.5207 47.5578 16.0433 47.0538 16.426C46.5498 16.8087 45.7798 17 44.7438 17H40.7258ZM42.7278 15.516H44.5618C44.9631 15.516 45.2618 15.4507 45.4578 15.32C45.6631 15.18 45.7658 14.97 45.7658 14.69C45.7658 14.4007 45.6724 14.1907 45.4858 14.06C45.2991 13.92 45.0051 13.85 44.6038 13.85H42.7278V15.516ZM42.7278 12.562H44.3798C44.7624 12.562 45.0471 12.492 45.2338 12.352C45.4298 12.212 45.5278 12.0113 45.5278 11.75C45.5278 11.4793 45.4298 11.2787 45.2338 11.148C45.0471 11.0173 44.7624 10.952 44.3798 10.952H42.7278V12.562Z" fill="#294030"/>
</svg>
