<svg width="46" height="67" viewBox="0 0 46 67" fill="none" xmlns="http://www.w3.org/2000/svg">
<path d="M0.787556 1.87709C0.413346 0.985187 1.06839 0 2.03562 0C2.54044 0 3.00331 0.280953 3.2363 0.728795L19.2099 31.4321C19.729 32.4299 20 33.5381 20 34.6628V62.8997C20 65.1643 18.1643 67 15.8997 67C13.4955 67 11.6071 64.9408 11.8148 62.5455L14.1365 35.7697C14.2345 34.6396 14.0564 33.5027 13.6176 32.4567L0.787556 1.87709Z" fill="#E6E6E6"/>
<path d="M24.4469 26.4694C24.0834 25.202 24.2621 23.8406 24.9405 22.7101L28.1028 17.4405C28.7399 16.3787 29.5688 15.4445 30.5471 14.6854L37.8509 9.01824L38.4835 8.46792C39.3329 7.72892 40.6623 8.12232 40.9728 9.20455C41.0339 9.41763 41.0483 9.6414 41.0149 9.86054L39.7666 18.0597C39.5707 19.3469 39.1252 20.5836 38.4551 21.7001L36.2042 25.451C35.6223 26.4207 34.8105 27.2321 33.8405 27.8136L31.4647 29.2376C28.7841 30.8444 25.3088 29.4735 24.4469 26.4694Z" fill="#E6E6E6"/>
</svg>
