<svg width="124" height="22" viewBox="0 0 124 22" fill="none" xmlns="http://www.w3.org/2000/svg">
<rect y="20" width="115" height="2" rx="1" fill="#294030"/>
<rect x="103.5" y="1.5" width="19" height="19" rx="9.5" stroke="#294030" stroke-width="3"/>
<path d="M1.218 17V7.2H5.782C6.92067 7.2 7.80733 7.41933 8.442 7.858C9.07667 8.29667 9.394 8.922 9.394 9.734C9.394 10.5367 9.09533 11.162 8.498 11.61C7.90067 12.0487 7.10733 12.268 6.118 12.268L6.384 11.68C7.48533 11.68 8.33933 11.8993 8.946 12.338C9.55267 12.7767 9.856 13.4113 9.856 14.242C9.856 15.1007 9.52933 15.7773 8.876 16.272C8.232 16.7573 7.28933 17 6.048 17H1.218ZM3.472 15.32H5.964C6.48667 15.32 6.88333 15.2173 7.154 15.012C7.42467 14.8067 7.56 14.4893 7.56 14.06C7.56 13.6493 7.42467 13.346 7.154 13.15C6.88333 12.9447 6.48667 12.842 5.964 12.842H3.472V15.32ZM3.472 11.26H5.586C6.08067 11.26 6.454 11.162 6.706 10.966C6.958 10.7607 7.084 10.462 7.084 10.07C7.084 9.678 6.958 9.384 6.706 9.188C6.454 8.98267 6.08067 8.88 5.586 8.88H3.472V11.26ZM10.5296 16.986L10.6416 15.194C10.6976 15.2033 10.7536 15.2127 10.8096 15.222C10.8656 15.222 10.917 15.222 10.9636 15.222C11.225 15.222 11.4303 15.1473 11.5796 14.998C11.729 14.8487 11.841 14.648 11.9156 14.396C11.9903 14.1347 12.0416 13.8407 12.0696 13.514C12.107 13.1873 12.135 12.8467 12.1536 12.492L12.2656 9.468H18.7056V17H16.5216V10.728L17.0116 11.26H13.7076L14.1696 10.7L14.0716 12.59C14.0436 13.262 13.9876 13.878 13.9036 14.438C13.829 14.998 13.703 15.4833 13.5256 15.894C13.3483 16.2953 13.1103 16.608 12.8116 16.832C12.513 17.0467 12.1303 17.154 11.6636 17.154C11.4956 17.154 11.3183 17.14 11.1316 17.112C10.945 17.084 10.7443 17.042 10.5296 16.986ZM25.3139 17V15.53L25.1739 15.208V12.576C25.1739 12.1093 25.0292 11.7453 24.7399 11.484C24.4599 11.2227 24.0259 11.092 23.4379 11.092C23.0365 11.092 22.6399 11.1573 22.2479 11.288C21.8652 11.4093 21.5385 11.5773 21.2679 11.792L20.4839 10.266C20.8945 9.97667 21.3892 9.75267 21.9679 9.594C22.5465 9.43533 23.1345 9.356 23.7319 9.356C24.8799 9.356 25.7712 9.62667 26.4059 10.168C27.0405 10.7093 27.3579 11.554 27.3579 12.702V17H25.3139ZM23.0179 17.112C22.4299 17.112 21.9259 17.014 21.5059 16.818C21.0859 16.6127 20.7639 16.3373 20.5399 15.992C20.3159 15.6467 20.2039 15.2593 20.2039 14.83C20.2039 14.382 20.3112 13.99 20.5259 13.654C20.7499 13.318 21.0999 13.0567 21.5759 12.87C22.0519 12.674 22.6725 12.576 23.4379 12.576H25.4399V13.85H23.6759C23.1625 13.85 22.8079 13.934 22.6119 14.102C22.4252 14.27 22.3319 14.48 22.3319 14.732C22.3319 15.012 22.4392 15.236 22.6539 15.404C22.8779 15.5627 23.1812 15.642 23.5639 15.642C23.9279 15.642 24.2545 15.558 24.5439 15.39C24.8332 15.2127 25.0432 14.956 25.1739 14.62L25.5099 15.628C25.3512 16.1133 25.0619 16.482 24.6419 16.734C24.2219 16.986 23.6805 17.112 23.0179 17.112ZM38.3131 17L36.3111 13.43L38.0751 12.38L40.9031 17H38.3131ZM35.0231 14.144V12.394H37.6411V14.144H35.0231ZM38.2991 13.486L36.2411 13.262L38.4111 9.468H40.7211L38.2991 13.486ZM30.8651 17H28.2891L31.1031 12.38L32.8671 13.43L30.8651 17ZM35.6671 17H33.5111V9.468H35.6671V17ZM34.1551 14.144H31.5511V12.394H34.1551V14.144ZM30.8791 13.486L28.4571 9.468H30.7671L32.9231 13.262L30.8791 13.486ZM42.0383 17V9.468H44.2083V12.408H47.4843V9.468H49.6683V17H47.4843V14.186H44.2083V17H42.0383ZM55.287 17.112C54.4843 17.112 53.7703 16.944 53.145 16.608C52.529 16.272 52.039 15.8147 51.675 15.236C51.3203 14.648 51.143 13.9807 51.143 13.234C51.143 12.478 51.3203 11.8107 51.675 11.232C52.039 10.644 52.529 10.1867 53.145 9.86C53.7703 9.524 54.4843 9.356 55.287 9.356C56.0803 9.356 56.7897 9.524 57.415 9.86C58.0403 10.1867 58.5303 10.6393 58.885 11.218C59.2397 11.7967 59.417 12.4687 59.417 13.234C59.417 13.9807 59.2397 14.648 58.885 15.236C58.5303 15.8147 58.0403 16.272 57.415 16.608C56.7897 16.944 56.0803 17.112 55.287 17.112ZM55.287 15.32C55.651 15.32 55.9777 15.236 56.267 15.068C56.5563 14.9 56.785 14.662 56.953 14.354C57.121 14.0367 57.205 13.6633 57.205 13.234C57.205 12.7953 57.121 12.422 56.953 12.114C56.785 11.806 56.5563 11.568 56.267 11.4C55.9777 11.232 55.651 11.148 55.287 11.148C54.923 11.148 54.5963 11.232 54.307 11.4C54.0177 11.568 53.7843 11.806 53.607 12.114C53.439 12.422 53.355 12.7953 53.355 13.234C53.355 13.6633 53.439 14.0367 53.607 14.354C53.7843 14.662 54.0177 14.9 54.307 15.068C54.5963 15.236 54.923 15.32 55.287 15.32ZM64.5031 17.112C63.6911 17.112 62.9678 16.9487 62.3331 16.622C61.6985 16.286 61.1991 15.824 60.8351 15.236C60.4805 14.648 60.3031 13.9807 60.3031 13.234C60.3031 12.478 60.4805 11.8107 60.8351 11.232C61.1991 10.644 61.6985 10.1867 62.3331 9.86C62.9678 9.524 63.6911 9.356 64.5031 9.356C65.2965 9.356 65.9871 9.524 66.5751 9.86C67.1631 10.1867 67.5971 10.658 67.8771 11.274L66.1831 12.184C65.9871 11.8293 65.7398 11.568 65.4411 11.4C65.1518 11.232 64.8345 11.148 64.4891 11.148C64.1158 11.148 63.7798 11.232 63.4811 11.4C63.1825 11.568 62.9445 11.806 62.7671 12.114C62.5991 12.422 62.5151 12.7953 62.5151 13.234C62.5151 13.6727 62.5991 14.046 62.7671 14.354C62.9445 14.662 63.1825 14.9 63.4811 15.068C63.7798 15.236 64.1158 15.32 64.4891 15.32C64.8345 15.32 65.1518 15.2407 65.4411 15.082C65.7398 14.914 65.9871 14.648 66.1831 14.284L67.8771 15.208C67.5971 15.8147 67.1631 16.286 66.5751 16.622C65.9871 16.9487 65.2965 17.112 64.5031 17.112ZM70.8006 17V10.756L71.2906 11.26H68.2526V9.468H75.5186V11.26H72.4806L72.9706 10.756V17H70.8006ZM80.7568 11.876C81.7461 11.8853 82.4975 12.1093 83.0108 12.548C83.5335 12.9773 83.7948 13.5887 83.7948 14.382C83.7948 15.2127 83.5008 15.8613 82.9128 16.328C82.3248 16.7853 81.5081 17.014 80.4628 17.014L76.6828 17V9.468H78.8528V11.876H80.7568ZM80.2668 15.46C80.6868 15.4693 81.0088 15.3807 81.2328 15.194C81.4568 15.0073 81.5688 14.7273 81.5688 14.354C81.5688 13.9807 81.4568 13.7147 81.2328 13.556C81.0088 13.388 80.6868 13.2993 80.2668 13.29L78.8528 13.276V15.46H80.2668Z" fill="#294030"/>
</svg>
