<svg width="147" height="147" viewBox="0 0 147 147" fill="none" xmlns="http://www.w3.org/2000/svg">
<path d="M138.178 59.6826C131.71 29.4006 104.515 7.35059 73.4977 7.35059C42.4807 7.35059 15.2857 29.4006 8.81766 59.6826C7.78866 64.2396 7.34766 68.9436 7.34766 73.5006C7.34766 85.9956 10.8757 98.3436 17.6377 108.928C29.8387 128.185 50.7127 139.651 73.4977 139.651C103.486 139.651 129.799 119.365 137.443 90.4056V90.2586C138.766 85.4076 139.501 80.2626 139.501 75.1176V74.6766C139.501 74.3826 139.501 73.9416 139.501 73.6476C139.648 68.9436 139.207 64.2396 138.178 59.6826ZM132.886 63.2106C133.327 66.1506 133.621 69.0906 133.768 72.0306H117.598C115.099 72.0306 113.188 70.1196 113.188 67.6206C113.188 65.1216 115.099 63.2106 117.598 63.2106H132.886ZM14.1097 63.2106H32.3377C34.8367 63.2106 36.7477 65.1216 36.7477 67.6206C36.7477 73.3536 41.3047 77.9106 47.0377 77.9106H73.4977C75.9967 77.9106 77.9077 79.8216 77.9077 82.3206C77.9077 84.8196 75.9967 86.7306 73.4977 86.7306H55.8577C50.1247 86.7306 45.5677 91.2876 45.5677 97.0206V99.9606C45.5677 102.46 43.6567 104.371 41.1577 104.371H21.7537C16.1677 95.1096 13.2277 84.3786 13.2277 73.5006C13.2277 70.1196 13.5217 66.5916 14.1097 63.2106ZM58.7977 48.5106C53.9467 48.5106 49.9777 44.5416 49.9777 39.6906H61.7377C66.5887 39.6906 70.5577 43.6596 70.5577 48.5106H58.7977ZM25.7227 110.251H41.1577C46.8907 110.251 51.4477 105.694 51.4477 99.9606V97.0206C51.4477 94.5216 53.3587 92.6106 55.8577 92.6106H73.4977C79.2307 92.6106 83.7877 88.0536 83.7877 82.3206C83.7877 77.6166 80.7007 73.7946 76.4377 72.4716V54.3906H88.1977C96.2827 54.3906 102.898 47.7756 102.898 39.6906V36.7506C102.898 35.1336 101.575 33.8106 99.9577 33.8106H85.2577C80.4067 33.8106 76.1437 36.1626 73.4977 39.6906C70.8517 36.1626 66.5887 33.8106 61.7377 33.8106H47.0377C45.4207 33.8106 44.0977 35.1336 44.0977 36.7506V39.6906C44.0977 47.7756 50.7127 54.3906 58.7977 54.3906H70.5577V72.0306H47.0377C44.5387 72.0306 42.6277 70.1196 42.6277 67.6206C42.6277 61.8876 38.0707 57.3306 32.3377 57.3306H15.4327C22.6357 31.6056 46.4497 13.2306 73.4977 13.2306C100.546 13.2306 124.36 31.6056 131.563 57.3306H117.598C111.865 57.3306 107.308 61.8876 107.308 67.6206C107.308 73.3536 111.865 77.9106 117.598 77.9106H133.621C133.474 80.8506 133.033 83.7906 132.298 86.7306H117.598C111.865 86.7306 107.308 91.2876 107.308 97.0206C107.308 99.5196 105.397 101.431 102.898 101.431H79.6717C74.2327 101.431 69.6757 105.547 69.0877 110.692C68.7937 113.632 69.8227 116.425 71.7337 118.63C73.6447 120.835 76.4377 122.011 79.3777 122.011H82.3177C84.8167 122.011 86.7277 123.922 86.7277 126.421V132.301C82.4647 133.33 78.0547 133.771 73.4977 133.771C54.6817 133.771 37.1887 125.098 25.7227 110.251ZM76.4377 48.5106C76.4377 43.6596 80.4067 39.6906 85.2577 39.6906H97.0177C97.0177 44.5416 93.0487 48.5106 88.1977 48.5106H76.4377ZM92.6077 130.684V126.421C92.6077 120.688 88.0507 116.131 82.3177 116.131H79.3777C78.0547 116.131 77.0257 115.69 76.1437 114.661C75.2617 113.779 74.9677 112.456 74.9677 111.28C75.1147 109.075 77.1727 107.311 79.6717 107.311H102.898C108.631 107.311 113.188 102.754 113.188 97.0206C113.188 94.5216 115.099 92.6106 117.598 92.6106H130.681C124.654 110.839 110.248 124.804 92.6077 130.684Z" fill="#E2BD64"/>
</svg>
