<svg width="147" height="140" viewBox="0 0 147 140" fill="none" xmlns="http://www.w3.org/2000/svg">
<path d="M121.126 26.8194C119.95 24.1815 117.304 22.4228 114.364 22.4228C113.335 22.4228 112.453 22.5694 111.571 23.009C105.25 25.5004 90.4033 32.9747 84.5233 48.6559C85.4053 38.5437 84.3763 23.8884 82.0243 13.7762C81.2893 10.2589 78.2023 7.91406 74.5273 7.91406C70.8523 7.91406 67.6183 10.2589 66.8833 13.4831C64.6783 21.9832 62.9143 38.104 63.7963 49.5352C58.2103 34.1471 42.7753 25.3539 36.4543 22.8625C35.5723 22.5694 34.6903 22.2763 33.6613 22.2763C30.7213 22.2763 28.0753 24.0349 26.8993 26.6729C25.7233 29.3108 26.1643 32.3884 28.2223 34.5867C35.8663 43.0868 44.5393 55.837 46.1563 63.0181H44.2453C43.3633 63.0181 42.6283 63.3112 42.1873 64.0439C41.5993 64.6302 41.4523 65.5095 41.4523 66.2422L43.0693 80.4579C43.2163 81.9234 44.3923 82.9493 45.8623 82.9493H47.7733L52.3303 113.432C52.6243 114.898 53.8003 115.924 55.1233 115.924H63.7963L50.5663 132.191L47.0383 129.26C45.8623 128.234 44.0983 128.381 42.9223 129.553C41.8933 130.726 42.0403 132.484 43.2163 133.657L48.9493 138.786C49.5373 139.226 50.1253 139.519 50.8603 139.519C51.0073 139.519 51.0073 139.519 51.1543 139.519C51.8893 139.519 52.6243 139.079 53.2123 138.493L71.2933 116.363H76.5853L95.6953 131.898L92.7553 135.122C91.7263 136.295 91.8733 138.053 93.0493 139.226C93.6373 139.665 94.2253 139.958 94.9603 139.958C95.6953 139.958 96.5773 139.665 97.1653 139.079L102.016 133.657C102.604 133.07 102.751 132.338 102.751 131.458C102.751 130.726 102.31 129.993 101.722 129.407L85.8463 116.51H93.0493C94.5193 116.51 95.6953 115.484 95.8423 114.019L100.399 83.5355H102.31C103.78 83.5355 104.956 82.3631 105.103 81.0441L106.72 66.8284C106.867 65.9491 106.573 65.2164 105.985 64.6301C105.397 64.0439 104.662 63.6043 103.78 63.6043H102.163C104.221 56.2766 113.188 42.9403 120.097 35.173C121.861 32.535 122.449 29.4574 121.126 26.8194ZM99.5173 77.3803H97.6063H50.2723H48.5083L47.4793 68.8802H100.399L99.5173 77.3803ZM90.4033 110.355H57.6223L53.6533 83.0959H94.3723L90.4033 110.355ZM71.7343 14.509C72.1753 12.6038 76.2913 12.0176 76.8793 14.6555C80.5543 31.216 79.6723 53.6387 79.6723 62.5784H68.0593C68.0593 62.4319 68.0593 62.4319 68.0593 62.2853C68.0593 62.4319 68.0593 62.5784 68.0593 62.5784H67.9123C68.0593 62.725 67.9123 29.7505 71.7343 14.509ZM32.3383 30.9229C31.1623 29.6039 32.6323 27.5522 34.2493 28.285C43.9513 32.0953 59.2393 41.7678 62.3263 62.725H51.8893C50.1253 53.3456 39.3943 38.5437 32.3383 30.9229ZM115.54 30.9229C108.631 38.6902 98.1943 53.7852 96.1363 62.725H85.6993C88.7863 41.7678 104.074 32.0953 113.776 28.285C115.393 27.5522 116.716 29.6039 115.54 30.9229Z" fill="#E2BD64"/>
<path d="M85.6978 93.9412C87.3148 93.9412 88.6378 92.6223 88.6378 91.0102C88.6378 89.3981 87.3148 88.0791 85.6978 88.0791C84.0808 88.0791 82.7578 89.3981 82.7578 91.0102C82.7578 92.6223 84.0808 93.9412 85.6978 93.9412Z" fill="#E2BD64"/>
<path d="M62.4752 93.9412C64.0922 93.9412 65.4152 92.6223 65.4152 91.0102C65.4152 89.3981 64.0922 88.0791 62.4752 88.0791C60.8582 88.0791 59.5352 89.3981 59.5352 91.0102C59.5352 92.6223 60.8582 93.9412 62.4752 93.9412Z" fill="#E2BD64"/>
<path d="M73.9388 105.958C77.1728 105.958 79.9658 104.199 81.2888 101.415C82.0238 99.9494 81.2888 98.3373 79.9658 97.6045C78.4958 96.8718 76.8788 97.6045 76.1438 98.9235C75.8498 99.5097 75.1148 100.096 74.0858 100.096C73.0568 100.096 72.3218 99.5097 72.0278 98.9235C71.2928 97.458 69.6758 96.8718 68.2058 97.6045C66.7358 98.3373 66.1478 99.9494 66.8828 101.415C67.9118 104.199 70.8518 105.958 73.9388 105.958Z" fill="#E2BD64"/>
</svg>
