<svg width="193" height="140" viewBox="0 0 193 140" fill="none" xmlns="http://www.w3.org/2000/svg">
<path d="M0.514979 32.0043C3.53079 11.8989 22.4223 -1.84515 42.4799 1.47374L75.5 6.9375L158.191 17.1628C164.95 17.9985 171.379 20.5612 176.859 24.6038C190.173 34.4259 195.987 51.4843 191.441 67.3929L188.905 76.2698C187.641 80.6934 187 85.2714 187 89.872C187 110.389 174.26 128.813 155.099 136.147C149.43 138.316 143.388 139.438 137.318 139.438H131.346C107.621 139.438 85.0595 129.161 69.4874 111.262L58.0982 98.171C53.0592 92.3791 47.2093 87.3462 40.7299 83.2285L16.9986 68.1469C4.83954 60.4196 -1.62211 46.2516 0.514979 32.0043Z" fill="#294030"/>
</svg>
