<svg width="186" height="137" viewBox="0 0 186 137" fill="none" xmlns="http://www.w3.org/2000/svg">
<path d="M159.764 131.702C156.639 132.966 153.37 133.838 150.03 134.299L140.907 135.556C115.503 139.058 89.8903 130.763 71.3618 113.034L59.3203 101.511C53.8624 96.2884 47.4603 92.1521 40.4559 89.323L26.0009 83.4846C7.41803 75.9789 -3.03731 56.1604 1.25875 36.5849C2.76669 29.7138 6.0137 23.3451 10.6887 18.0887L12.023 16.5885C23.7225 3.43404 41.6032 -2.39434 58.8073 1.33867L71.5586 4.10547L102.737 7.23829C116.807 8.65195 130.291 13.5944 141.942 21.6075L156.618 31.7016C170.012 40.9142 179.137 55.1285 181.937 71.1424L184.677 86.8161C187.992 105.78 177.612 124.484 159.764 131.702Z" fill="#294030"/>
</svg>
