<svg width="88" height="91" viewBox="0 0 88 91" fill="none" xmlns="http://www.w3.org/2000/svg">
<g filter="url(#filter0_d_33_173)">
<path d="M41.4778 20.1592C41.4778 18.7723 42.5581 17.6479 43.8906 17.6479C45.2231 17.6479 46.3034 18.7723 46.3034 20.1592L46.3034 21.6302L47.0101 20.8947C47.9523 19.914 49.48 19.914 50.4222 20.8947C51.3645 21.8754 51.3645 23.4655 50.4222 24.4462L46.3034 28.7331L46.3034 39.209L53.4205 31.8014L53.4205 25.739C53.4205 24.3521 54.5007 23.2277 55.8332 23.2277C57.1658 23.2277 58.246 24.3521 58.246 25.739L58.246 26.7789L59.2453 25.7388C60.1875 24.7581 61.7152 24.7581 62.6575 25.7388C63.5997 26.7195 63.5997 28.3095 62.6575 29.2902L61.658 30.3305L62.6576 30.3305C63.9901 30.3305 65.0703 31.4548 65.0703 32.8417C65.0703 34.2286 63.9901 35.353 62.6576 35.353L56.8325 35.353L49.7155 42.7604L59.7806 42.7604L63.8994 38.4734C64.8417 37.4927 66.3693 37.4927 67.3116 38.4734C68.2538 39.4541 68.2538 41.0442 67.3116 42.0249L66.6049 42.7604L68.0183 42.7604C69.3508 42.7604 70.431 43.8847 70.431 45.2717C70.431 46.6586 69.3508 47.7829 68.0183 47.7829L66.6049 47.7829L67.3116 48.5184C68.2538 49.4991 68.2538 51.0892 67.3116 52.0699C66.3693 53.0506 64.8417 53.0506 63.8994 52.0699L59.7806 47.7829L49.7155 47.7829L56.8325 55.1903L62.6576 55.1903C63.9901 55.1903 65.0703 56.3147 65.0703 57.7016C65.0703 59.0885 63.9901 60.2128 62.6576 60.2128L61.658 60.2128L62.6576 61.2532C63.5998 62.2339 63.5998 63.8239 62.6576 64.8046C61.7153 65.7853 60.1876 65.7853 59.2454 64.8046L58.246 63.7644L58.246 64.8043C58.246 66.1912 57.1658 67.3156 55.8332 67.3156C54.5007 67.3156 53.4205 66.1912 53.4205 64.8043L53.4205 58.7419L46.3034 51.3343L46.3034 61.8102L50.4222 66.0972C51.3645 67.0779 51.3645 68.6679 50.4222 69.6486C49.48 70.6293 47.9523 70.6293 47.01 69.6486L46.3034 68.9131L46.3034 70.3841C46.3034 71.771 45.2231 72.8954 43.8906 72.8954C42.5581 72.8954 41.4778 71.771 41.4778 70.3841L41.4778 68.9131L40.7711 69.6486C39.8289 70.6293 38.3012 70.6293 37.359 69.6486C36.4167 68.6679 36.4167 67.0779 37.359 66.0971L41.4778 61.8102L41.4778 51.3343L34.3607 58.7419L34.3607 64.8043C34.3607 66.1912 33.2805 67.3156 31.948 67.3156C30.6154 67.3156 29.5352 66.1912 29.5352 64.8043L29.5352 63.7644L28.5358 64.8046C27.5936 65.7853 26.0659 65.7853 25.1236 64.8046C24.1814 63.8239 24.1814 62.2339 25.1236 61.2532L26.1232 60.2128L25.1236 60.2128C23.7911 60.2128 22.7109 59.0885 22.7109 57.7016C22.7109 56.3147 23.7911 55.1903 25.1236 55.1903L30.9487 55.1903L38.0657 47.7829L28.0006 47.7829L23.8818 52.0699C22.9395 53.0506 21.4119 53.0506 20.4696 52.0699C19.5274 51.0892 19.5274 49.4991 20.4696 48.5184L21.1763 47.7829L19.7629 47.7829C18.4304 47.7829 17.3502 46.6586 17.3502 45.2716C17.3502 43.8847 18.4304 42.7604 19.7629 42.7604L21.1763 42.7604L20.4696 42.0249C19.5274 41.0442 19.5274 39.4541 20.4696 38.4734C21.4119 37.4927 22.9395 37.4927 23.8818 38.4734L28.0006 42.7604L38.0657 42.7604L30.9487 35.353L25.1236 35.353C23.7911 35.353 22.7109 34.2286 22.7109 32.8417C22.7109 31.4548 23.7911 30.3305 25.1236 30.3305L26.1232 30.3305L25.1237 29.2902C24.1815 28.3095 24.1815 26.7195 25.1237 25.7388C26.066 24.7581 27.5937 24.7581 28.5359 25.7388L29.5352 26.7789L29.5352 25.739C29.5352 24.3521 30.6154 23.2277 31.948 23.2277C33.2805 23.2277 34.3607 24.3521 34.3607 25.739L34.3607 31.8014L41.4778 39.209L41.4778 28.7331L37.359 24.4462C36.4167 23.4655 36.4167 21.8754 37.359 20.8947C38.3012 19.914 39.8289 19.914 40.7712 20.8947L41.4778 21.6302L41.4778 20.1592Z" fill="#E2BD64"/>
</g>
<defs>
<filter id="filter0_d_33_173" x="-2.36262" y="-2.16328" width="92.5064" height="94.87" filterUnits="userSpaceOnUse" color-interpolation-filters="sRGB">
<feFlood flood-opacity="0" result="BackgroundImageFix"/>
<feColorMatrix in="SourceAlpha" type="matrix" values="0 0 0 0 0 0 0 0 0 0 0 0 0 0 0 0 0 0 127 0" result="hardAlpha"/>
<feOffset/>
<feGaussianBlur stdDeviation="8.65"/>
<feComposite in2="hardAlpha" operator="out"/>
<feColorMatrix type="matrix" values="0 0 0 0 0.886275 0 0 0 0 0.741176 0 0 0 0 0.392157 0 0 0 0.34 0"/>
<feBlend mode="normal" in2="BackgroundImageFix" result="effect1_dropShadow_33_173"/>
<feBlend mode="normal" in="SourceGraphic" in2="effect1_dropShadow_33_173" result="shape"/>
</filter>
</defs>
</svg>
