<svg width="32" height="32" viewBox="0 0 32 32" fill="none" xmlns="http://www.w3.org/2000/svg">
<g clip-path="url(#clip0_33_222)">
<path fill-rule="evenodd" clip-rule="evenodd" d="M28.9559 14.0377C29.2932 14.6368 29.4703 15.3126 29.4703 16.0001C29.4703 16.6876 29.2932 17.3634 28.9559 17.9625C28.6186 18.5616 28.1326 19.0636 27.5448 19.4201L27.5385 19.424L8.68517 30.7173L8.66676 30.7281C8.06191 31.0774 7.37616 31.2622 6.67772 31.2641C5.97928 31.2661 5.2925 31.0851 4.68571 30.7392C4.07892 30.3934 3.57326 29.8946 3.21906 29.2927C2.86485 28.6907 2.67443 28.0065 2.66676 27.3081L2.6666 27.2934L2.66668 4.69212C2.67435 3.99371 2.86485 3.3095 3.21906 2.70754C3.57326 2.10557 4.07892 1.60684 4.68571 1.26097C5.2925 0.915102 5.97928 0.734143 6.67772 0.736099C7.37616 0.738054 8.06191 0.922858 8.66676 1.27212L8.68517 1.28295L27.5449 12.5801C28.1326 12.9366 28.6186 13.4387 28.9559 14.0377Z" fill="black"/>
<path fill-rule="evenodd" clip-rule="evenodd" d="M28.9559 14.0377C29.2932 14.6368 29.4703 15.3126 29.4703 16.0001C29.4703 16.6876 29.2932 17.3634 28.9559 17.9625C28.6186 18.5616 28.1326 19.0636 27.5448 19.4201L27.5385 19.424L8.68517 30.7173L8.66676 30.7281C8.06191 31.0774 7.37616 31.2622 6.67772 31.2641C5.97928 31.2661 5.2925 31.0851 4.68571 30.7392C4.07892 30.3934 3.57326 29.8946 3.21906 29.2927C2.86485 28.6907 2.67443 28.0065 2.66676 27.3081L2.6666 27.2934L2.66668 4.69212C2.67435 3.99371 2.86485 3.3095 3.21906 2.70754C3.57326 2.10557 4.07892 1.60684 4.68571 1.26097C5.2925 0.915102 5.97928 0.734143 6.67772 0.736099C7.37616 0.738054 8.06191 0.922858 8.66676 1.27212L8.68517 1.28295L27.5449 12.5801C28.1326 12.9366 28.6186 13.4387 28.9559 14.0377Z" fill="url(#paint0_linear_33_222)"/>
</g>
<defs>
<linearGradient id="paint0_linear_33_222" x1="2.80806" y1="15.7196" x2="29.194" y2="15.705" gradientUnits="userSpaceOnUse">
<stop stop-color="#426357"/>
<stop offset="1" stop-color="#456659"/>
</linearGradient>
<clipPath id="clip0_33_222">
<rect width="32" height="32" fill="white" transform="translate(32) rotate(90)"/>
</clipPath>
</defs>
</svg>
