<svg width="147" height="147" viewBox="0 0 147 147" fill="none" xmlns="http://www.w3.org/2000/svg">
<path d="M131.651 72.1829C128.68 68.0305 123.976 65.6264 118.777 65.4079C113.083 65.1894 108.626 66.9377 105.655 70.4345L101.199 74.3684C102.189 72.4015 102.437 70.4345 102.437 68.249C102.189 63.6595 98.9706 59.5071 94.2666 56.8845C93.5239 56.4474 92.286 56.4474 91.5432 57.1031C87.0868 59.9442 84.8586 64.5337 85.1062 69.1232C85.3538 73.7127 88.5723 77.8652 93.2763 80.4878C93.5239 80.7063 93.7714 80.7063 94.019 80.7063L80.1546 92.945V53.1692L92.7811 42.0232C94.2666 46.1756 97.9803 49.4538 102.684 51.2022C104.912 51.8579 107.141 52.295 109.617 52.295C112.587 52.295 115.558 51.6393 118.529 50.328C119.52 49.8909 120.015 48.7982 119.767 47.924C118.529 43.553 114.568 39.8377 109.617 38.0893C105.903 36.778 101.942 36.5595 97.9803 37.4337L104.17 31.97C107.141 34.5925 111.35 36.778 115.806 36.9966C116.054 36.9966 116.054 36.9966 116.301 36.9966C121.253 36.9966 126.204 34.8111 129.175 30.8772C129.67 30.2216 129.67 29.1288 129.175 28.4732C126.204 24.3208 121.5 21.9167 116.301 21.6982C110.112 21.4796 104.912 23.4466 101.942 26.9433C102.437 25.1949 102.437 23.6651 102.189 21.9167C101.446 17.3272 98.2279 13.3933 93.2763 10.9893C92.286 10.5522 91.2957 10.7707 90.5529 11.2078C86.5917 14.4861 84.611 19.0756 85.3538 23.6651C86.0965 28.2546 89.315 32.1885 94.2666 34.5925L80.1546 47.0498V23.8837V23.6651C80.4022 19.0756 78.174 14.7046 74.2127 11.8635C70.2514 9.02235 64.8047 7.9296 59.8531 9.02235C58.8628 9.2409 58.1201 10.1151 58.1201 10.9893C57.8725 15.5788 60.1007 19.9498 64.062 22.7909C67.0329 24.9764 70.7466 26.0691 74.4603 26.0691C74.7079 26.0691 75.203 26.0691 75.4506 26.0691V71.0902L67.5281 64.0966C67.2805 63.8781 67.2805 63.8781 67.0329 63.6595L62.8241 59.9442C67.7757 57.9772 71.2418 54.2619 72.2321 49.6724C73.47 45.0829 71.7369 40.2748 68.0232 36.778C67.2805 36.1224 66.2902 35.9038 65.2999 36.3409C60.3483 38.3079 56.6346 42.0232 55.6443 46.6127C55.1491 49.0168 55.1491 51.6393 56.1394 54.0434L52.6733 50.9837C49.4548 46.6127 44.7508 43.7716 39.7992 43.7716C34.6001 43.553 29.6485 45.9571 26.43 49.8909C25.9348 50.5466 25.9348 51.6393 26.43 52.295C29.4009 56.4474 34.1049 58.8514 39.3041 59.07C39.5516 59.07 39.7992 59.07 40.0468 59.07C44.5032 59.07 47.9693 57.9772 50.6927 55.5732L57.1298 61.2555C55.1491 61.2555 53.4161 61.474 51.683 62.1297C46.4839 63.6595 42.5226 67.1563 41.0371 71.5273C40.7895 72.4015 41.0371 73.4942 42.0274 73.9313C44.9984 75.4611 48.2169 76.3353 51.683 76.3353C53.6636 76.3353 55.6443 76.1168 57.3773 75.4611C61.091 74.3684 64.3095 71.9644 66.5378 69.1232L75.6982 77.2095V102.561C64.8047 102.78 49.2072 104.747 48.4645 110.866V111.085V111.303C48.4645 111.522 48.4645 111.522 48.4645 111.74C48.4645 111.74 48.4645 111.74 48.4645 111.959C48.4645 112.177 48.7121 112.614 48.7121 112.833L54.9015 132.721C55.6443 139.496 75.6982 139.714 77.9264 139.714C80.1546 139.714 100.456 139.496 100.951 132.721L107.141 112.833C107.388 112.614 107.388 112.177 107.388 111.959C107.388 111.959 107.388 111.959 107.388 111.74C107.388 111.522 107.388 111.522 107.388 111.303V111.085V110.866C106.646 104.747 91.0481 102.78 80.1546 102.561V99.0644L92.7811 87.9184C94.2666 92.0708 98.2279 95.5676 103.179 97.0975C105.16 97.7531 107.388 97.9717 109.369 97.9717C112.587 97.9717 115.806 97.316 118.529 95.7862C119.52 95.3491 120.015 94.2563 119.767 93.3821C118.282 89.0112 114.32 85.2958 109.369 83.766C105.655 82.6732 101.694 82.4547 97.9803 83.5474L107.388 75.2426C110.607 78.5208 114.568 80.4878 118.529 80.7063C118.777 80.7063 118.777 80.7063 119.024 80.7063C123.976 80.7063 128.928 78.5208 131.899 74.5869C132.146 73.9313 132.394 73.0571 131.651 72.1829ZM90.0578 68.9047C89.8102 66.2821 91.0481 63.6595 93.2763 61.6926C95.7521 63.441 97.2375 65.845 97.4851 68.6861C97.7327 71.3087 96.4948 73.9313 94.2666 75.8982C91.7908 73.9313 90.3053 71.5273 90.0578 68.9047ZM107.636 42.2417C110.607 43.3345 112.835 45.0829 114.073 47.2684C111.102 48.1426 107.636 48.1426 104.417 47.0498C101.446 45.9571 99.2182 44.2087 97.9803 42.0232C101.199 41.149 104.665 41.149 107.636 42.2417ZM116.054 26.0691C119.024 26.0691 121.995 27.3804 123.976 29.5659C121.748 31.5329 119.024 32.6256 115.806 32.6256C112.835 32.6256 109.369 30.8772 107.141 28.4732V28.2546C109.864 26.5062 113.33 26.0691 116.054 26.0691ZM90.0578 23.228C89.5626 20.6054 90.5529 17.9828 92.5335 15.7974C95.2569 17.3272 96.99 19.9498 97.2375 22.5724C97.7327 25.1949 96.7424 27.8175 94.7618 30.003C92.286 28.2546 90.5529 25.8506 90.0578 23.228ZM60.3483 47.4869C61.091 44.8643 62.8241 42.4603 65.5474 40.9304C67.2805 43.1159 68.0232 45.9571 67.2805 48.5797C66.5378 51.2022 64.8047 53.6063 62.0813 55.1361C60.3483 52.9506 59.6055 50.328 60.3483 47.4869ZM55.3967 71.3087C52.4258 72.1829 48.9596 72.1829 46.2363 70.8716C47.7218 68.4676 49.95 66.7192 52.9209 65.845C55.8919 64.9708 59.358 64.9708 62.0813 66.2821C60.8434 68.6861 58.3676 70.4345 55.3967 71.3087ZM39.3041 54.4805C36.3331 54.4805 33.3622 53.1692 31.3815 50.9837C33.6098 49.0168 36.5807 47.924 39.5516 47.924C42.7702 47.924 45.4935 49.8909 47.4742 52.0764C45.4935 53.8248 42.7702 54.4805 39.3041 54.4805ZM67.0329 19.5127C64.8047 17.9828 63.3192 15.5788 63.0716 12.9562C66.0426 12.7377 69.0135 13.6119 71.2418 15.1417C73.47 16.8901 74.9554 19.0756 75.203 21.6982C72.2321 21.9167 69.2611 21.0425 67.0329 19.5127ZM95.9997 131.847C95.9997 132.065 95.9997 132.065 95.9997 132.284C95.0093 133.377 88.3247 135.343 77.6788 135.343C67.2805 135.343 60.5959 133.377 59.358 132.284C59.358 132.065 59.358 132.065 59.358 131.847L54.9015 117.204C61.3386 119.389 70.9942 120.045 77.6788 120.045C84.3634 120.045 94.019 119.389 100.456 117.204L95.9997 131.847ZM102.437 111.303C101.199 113.052 92.0384 115.674 77.6788 115.674C63.5668 115.674 54.654 113.052 53.1685 111.74V111.303C54.1588 109.773 62.3289 107.369 75.4506 106.932V111.303C75.4506 112.614 76.4409 113.489 77.9264 113.489C79.4119 113.489 80.4022 112.614 80.4022 111.303V106.932C93.2763 107.151 101.199 109.773 102.437 111.303ZM107.636 87.9184C110.607 88.7926 112.835 90.7595 114.321 92.945C111.35 94.0378 107.883 94.0378 104.912 92.945C101.942 92.0708 99.7133 90.1039 98.2279 87.9184C101.199 87.0442 104.417 87.0442 107.636 87.9184ZM118.529 76.3353C115.311 76.3353 112.587 74.3684 110.607 72.1829C112.587 70.6531 115.311 69.7789 118.777 69.7789C121.748 69.7789 124.719 71.0902 126.699 73.2756C124.471 75.2426 121.5 76.3353 118.529 76.3353Z" fill="#E2BD64"/>
</svg>
