<svg width="47" height="47" viewBox="0 0 47 47" fill="none" xmlns="http://www.w3.org/2000/svg">
<path d="M19.5833 18.6042C19.5833 20.2265 18.2682 21.5417 16.6458 21.5417C15.0235 21.5417 13.7083 20.2265 13.7083 18.6042C13.7083 16.9818 15.0235 15.6667 16.6458 15.6667C18.2682 15.6667 19.5833 16.9818 19.5833 18.6042Z" fill="#E6E6E6"/>
<path d="M30.3542 21.5417C31.9765 21.5417 33.2917 20.2265 33.2917 18.6042C33.2917 16.9818 31.9765 15.6667 30.3542 15.6667C28.7318 15.6667 27.4167 16.9818 27.4167 18.6042C27.4167 20.2265 28.7318 21.5417 30.3542 21.5417Z" fill="#E6E6E6"/>
<path d="M28.2661 29.7641C27.1647 29.3969 25.5694 29.375 23.5 29.375C22.4185 29.375 21.5417 28.4982 21.5417 27.4167C21.5417 26.3351 22.4184 25.4583 23.5 25.4583L23.6853 25.4583C25.5008 25.4576 27.7296 25.4567 29.5047 26.0484C30.4787 26.3731 31.4695 26.9198 32.206 27.8667C32.9556 28.8306 33.2917 30.0155 33.2917 31.3333C33.2917 32.4149 32.4149 33.2917 31.3333 33.2917C30.2518 33.2917 29.375 32.4149 29.375 31.3333C29.375 30.6928 29.2214 30.409 29.1143 30.2713C28.9941 30.1167 28.7609 29.929 28.2661 29.7641Z" fill="#E6E6E6"/>
<path d="M16.6458 23.5C15.6667 23.5 13.7083 27.4167 13.7083 28.3958C13.7083 29.375 14.6875 31.3333 16.6458 31.3333C18.6042 31.3333 19.5833 29.375 19.5833 28.3958C19.5833 27.4167 17.625 23.5 16.6458 23.5Z" fill="#E6E6E6"/>
<path fill-rule="evenodd" clip-rule="evenodd" d="M45.0417 23.5C45.0417 35.3971 35.3971 45.0417 23.5 45.0417C11.6029 45.0417 1.95834 35.3971 1.95834 23.5C1.95834 11.6029 11.6029 1.95833 23.5 1.95833C35.3971 1.95833 45.0417 11.6029 45.0417 23.5ZM5.88838 23.5C5.88838 33.2266 13.7734 41.1116 23.5 41.1116C33.2266 41.1116 41.1116 33.2266 41.1116 23.5C41.1116 13.7734 33.2266 5.88837 23.5 5.88837C13.7734 5.88837 5.88838 13.7734 5.88838 23.5Z" fill="#E6E6E6"/>
</svg>
