<svg width="47" height="46" viewBox="0 0 47 46" fill="none" xmlns="http://www.w3.org/2000/svg">
<path d="M13.1307 20.5259C13.4148 20.257 13.7319 20.0173 14.0602 19.8031C14.6971 19.3876 15.2761 19.1667 15.6667 19.1667C16.0572 19.1667 16.6363 19.3876 17.2731 19.8031C17.7718 20.1285 18.1511 20.4771 18.199 20.5225C18.9655 21.248 20.2048 21.269 20.9681 20.5219C21.7329 19.7734 21.7329 18.5599 20.9681 17.8114C20.5082 17.3621 19.9853 16.9656 19.4457 16.6136C18.6138 16.0708 17.2345 15.3333 15.6667 15.3333C14.0989 15.3333 12.7196 16.0708 11.8877 16.6136C11.3486 16.9653 10.8265 17.3615 10.3667 17.81C9.61397 18.5486 9.60784 19.7806 10.3653 20.5219C11.1284 21.2688 12.3655 21.2696 13.1307 20.5259Z" fill="#406048"/>
<path d="M17.4071 25.9544C16.9165 25.0238 15.7511 24.6497 14.7913 25.1194C13.8239 25.5928 13.4318 26.7441 13.9155 27.6909C14.077 28.0059 14.2826 28.3014 14.4982 28.5827C14.8562 29.0499 15.3966 29.6515 16.1573 30.2471C17.7034 31.4577 20.0872 32.5837 23.5004 32.5837C26.9136 32.5837 29.2974 31.4577 30.8436 30.2471C31.6042 29.6515 32.1446 29.0499 32.5026 28.5827C32.719 28.3003 32.9158 28.0051 33.0843 27.693C33.5634 26.7585 33.1648 25.5869 32.2096 25.1194C31.2498 24.6497 30.0844 25.0238 29.5937 25.9544C29.5667 26.0021 29.1982 26.6263 28.3969 27.2537C27.4951 27.9598 25.9622 28.7504 23.5004 28.7504C21.0386 28.7504 19.5058 27.9598 18.604 27.2537C17.8027 26.6263 17.4342 26.0021 17.4071 25.9544Z" fill="#406048"/>
<path fill-rule="evenodd" clip-rule="evenodd" d="M23.5 44.0833C35.3971 44.0833 45.0417 34.644 45.0417 23C45.0417 11.356 35.3971 1.91666 23.5 1.91666C11.6029 1.91666 1.95834 11.356 1.95834 23C1.95834 34.644 11.6029 44.0833 23.5 44.0833ZM23.5 40.2369C13.7734 40.2369 5.88838 32.5197 5.88838 23C5.88838 13.4803 13.7734 5.76308 23.5 5.76308C33.2266 5.76308 41.1116 13.4803 41.1116 23C41.1116 32.5197 33.2266 40.2369 23.5 40.2369Z" fill="#406048"/>
<path d="M28.7974 20.5259C29.0814 20.257 29.3986 20.0173 29.7269 19.8031C30.3638 19.3876 30.9428 19.1667 31.3333 19.1667C31.7239 19.1667 32.3029 19.3876 32.9398 19.8031C33.4384 20.1285 33.8178 20.4771 33.8657 20.5225C34.6322 21.248 35.8715 21.269 36.6348 20.5219C37.3995 19.7734 37.3995 18.5599 36.6348 17.8114C36.1749 17.3621 35.6519 16.9656 35.1123 16.6136C34.2804 16.0708 32.9011 15.3333 31.3333 15.3333C29.7655 15.3333 28.3863 16.0708 27.5543 16.6136C27.0153 16.9653 26.4932 17.3615 26.0334 17.81C25.2806 18.5486 25.2745 19.7806 26.0319 20.5219C26.7951 21.2688 28.0322 21.2696 28.7974 20.5259Z" fill="#406048"/>
</svg>
