<svg width="39" height="39" viewBox="0 0 39 39" fill="none" xmlns="http://www.w3.org/2000/svg">
<path fill-rule="evenodd" clip-rule="evenodd" d="M3.25 5.94159C3.25 3.49593 5.84947 1.92655 8.01368 3.06561L33.7747 16.624C36.0897 17.8425 36.0898 21.1575 33.7747 22.376L8.01368 35.9344C5.84947 37.0734 3.24999 35.5041 3.24999 33.0584L3.25 5.94159ZM32.261 19.5L26.4359 16.4341L23.1145 19.5L26.4359 22.5658L32.261 19.5ZM23.3843 24.1719L20.7187 21.7115L10.9815 30.6997L23.3843 24.1719ZM20.7187 17.2885L23.3843 14.828L10.9815 8.30025L20.7187 17.2885ZM6.5 8.58647L18.323 19.5L6.5 30.4135L6.5 8.58647Z" fill="#E6E6E6"/>
</svg>
