<svg width="146" height="22" viewBox="0 0 146 22" fill="none" xmlns="http://www.w3.org/2000/svg">
<rect x="11" y="20" width="134" height="2" rx="1" fill="#294030"/>
<rect x="1.5" y="1.5" width="19" height="19" rx="9.5" stroke="#294030" stroke-width="3"/>
<path d="M37.908 15.168C37.1333 15.168 36.4147 15.042 35.752 14.79C35.0987 14.538 34.5293 14.1833 34.044 13.726C33.568 13.2687 33.1947 12.732 32.924 12.116C32.6627 11.5 32.532 10.828 32.532 10.1C32.532 9.372 32.6627 8.7 32.924 8.084C33.1947 7.468 33.5727 6.93133 34.058 6.474C34.5433 6.01667 35.1127 5.662 35.766 5.41C36.4193 5.158 37.1287 5.032 37.894 5.032C38.6687 5.032 39.378 5.158 40.022 5.41C40.6753 5.662 41.24 6.01667 41.716 6.474C42.2013 6.93133 42.5793 7.468 42.85 8.084C43.1207 8.69067 43.256 9.36267 43.256 10.1C43.256 10.828 43.1207 11.5047 42.85 12.13C42.5793 12.746 42.2013 13.2827 41.716 13.74C41.24 14.188 40.6753 14.538 40.022 14.79C39.378 15.042 38.6733 15.168 37.908 15.168ZM37.894 13.236C38.3327 13.236 38.734 13.1613 39.098 13.012C39.4713 12.8627 39.798 12.648 40.078 12.368C40.358 12.088 40.5727 11.7567 40.722 11.374C40.8807 10.9913 40.96 10.5667 40.96 10.1C40.96 9.63333 40.8807 9.20867 40.722 8.826C40.5727 8.44333 40.358 8.112 40.078 7.832C39.8073 7.552 39.4853 7.33733 39.112 7.188C38.7387 7.03867 38.3327 6.964 37.894 6.964C37.4553 6.964 37.0493 7.03867 36.676 7.188C36.312 7.33733 35.99 7.552 35.71 7.832C35.43 8.112 35.2107 8.44333 35.052 8.826C34.9027 9.20867 34.828 9.63333 34.828 10.1C34.828 10.5573 34.9027 10.982 35.052 11.374C35.2107 11.7567 35.4253 12.088 35.696 12.368C35.976 12.648 36.3027 12.8627 36.676 13.012C37.0493 13.1613 37.4553 13.236 37.894 13.236ZM48.4192 15.112C47.6072 15.112 46.8838 14.9487 46.2492 14.622C45.6145 14.286 45.1152 13.824 44.7512 13.236C44.3965 12.648 44.2192 11.9807 44.2192 11.234C44.2192 10.478 44.3965 9.81067 44.7512 9.232C45.1152 8.644 45.6145 8.18667 46.2492 7.86C46.8838 7.524 47.6072 7.356 48.4192 7.356C49.2125 7.356 49.9032 7.524 50.4912 7.86C51.0792 8.18667 51.5132 8.658 51.7932 9.274L50.0992 10.184C49.9032 9.82933 49.6558 9.568 49.3572 9.4C49.0678 9.232 48.7505 9.148 48.4052 9.148C48.0318 9.148 47.6958 9.232 47.3972 9.4C47.0985 9.568 46.8605 9.806 46.6832 10.114C46.5152 10.422 46.4312 10.7953 46.4312 11.234C46.4312 11.6727 46.5152 12.046 46.6832 12.354C46.8605 12.662 47.0985 12.9 47.3972 13.068C47.6958 13.236 48.0318 13.32 48.4052 13.32C48.7505 13.32 49.0678 13.2407 49.3572 13.082C49.6558 12.914 49.9032 12.648 50.0992 12.284L51.7932 13.208C51.5132 13.8147 51.0792 14.286 50.4912 14.622C49.9032 14.9487 49.2125 15.112 48.4192 15.112ZM53.1203 15V7.468H56.9703C57.913 7.468 58.6503 7.64067 59.1823 7.986C59.7143 8.322 59.9803 8.798 59.9803 9.414C59.9803 10.03 59.7283 10.5153 59.2243 10.87C58.7296 11.2153 58.0716 11.388 57.2503 11.388L57.4743 10.884C58.389 10.884 59.0703 11.052 59.5183 11.388C59.9756 11.724 60.2043 12.214 60.2043 12.858C60.2043 13.5207 59.9523 14.0433 59.4483 14.426C58.9443 14.8087 58.1743 15 57.1383 15H53.1203ZM55.1223 13.516H56.9563C57.3576 13.516 57.6563 13.4507 57.8523 13.32C58.0576 13.18 58.1603 12.97 58.1603 12.69C58.1603 12.4007 58.067 12.1907 57.8803 12.06C57.6936 11.92 57.3996 11.85 56.9983 11.85H55.1223V13.516ZM55.1223 10.562H56.7743C57.157 10.562 57.4416 10.492 57.6283 10.352C57.8243 10.212 57.9223 10.0113 57.9223 9.75C57.9223 9.47933 57.8243 9.27867 57.6283 9.148C57.4416 9.01733 57.157 8.952 56.7743 8.952H55.1223V10.562ZM65.5113 15.112C64.6526 15.112 63.8966 14.944 63.2433 14.608C62.5993 14.272 62.1 13.8147 61.7453 13.236C61.3906 12.648 61.2133 11.9807 61.2133 11.234C61.2133 10.478 61.386 9.81067 61.7313 9.232C62.086 8.644 62.5666 8.18667 63.1733 7.86C63.78 7.524 64.466 7.356 65.2313 7.356C65.9686 7.356 66.6313 7.51467 67.2193 7.832C67.8166 8.14 68.288 8.588 68.6333 9.176C68.9786 9.75467 69.1513 10.45 69.1513 11.262C69.1513 11.346 69.1466 11.444 69.1373 11.556C69.128 11.6587 69.1186 11.7567 69.1093 11.85H62.9913V10.576H67.9613L67.1213 10.954C67.1213 10.562 67.042 10.2213 66.8833 9.932C66.7246 9.64267 66.5053 9.41867 66.2253 9.26C65.9453 9.092 65.6186 9.008 65.2453 9.008C64.872 9.008 64.5406 9.092 64.2513 9.26C63.9713 9.41867 63.752 9.64733 63.5933 9.946C63.4346 10.2353 63.3553 10.5807 63.3553 10.982V11.318C63.3553 11.7287 63.444 12.0927 63.6213 12.41C63.808 12.718 64.0646 12.956 64.3913 13.124C64.7273 13.2827 65.1193 13.362 65.5673 13.362C65.9686 13.362 66.3186 13.3013 66.6173 13.18C66.9253 13.0587 67.2053 12.8767 67.4573 12.634L68.6193 13.894C68.274 14.286 67.84 14.5893 67.3173 14.804C66.7946 15.0093 66.1926 15.112 65.5113 15.112ZM75.9634 13.208L75.4874 13.712V7.468H77.6714V13.712L77.1674 13.208H80.6394L80.1494 13.712V7.468H82.3194V15H70.8254V7.468H72.9954V13.712L72.5054 13.208H75.9634ZM81.3394 16.498V14.496L81.8294 15H80.0934V13.208H83.3694V16.498H81.3394ZM88.0972 15.112C87.2386 15.112 86.4826 14.944 85.8292 14.608C85.1852 14.272 84.6859 13.8147 84.3312 13.236C83.9766 12.648 83.7992 11.9807 83.7992 11.234C83.7992 10.478 83.9719 9.81067 84.3172 9.232C84.6719 8.644 85.1526 8.18667 85.7592 7.86C86.3659 7.524 87.0519 7.356 87.8172 7.356C88.5546 7.356 89.2172 7.51467 89.8052 7.832C90.4026 8.14 90.8739 8.588 91.2192 9.176C91.5646 9.75467 91.7372 10.45 91.7372 11.262C91.7372 11.346 91.7326 11.444 91.7232 11.556C91.7139 11.6587 91.7046 11.7567 91.6952 11.85H85.5772V10.576H90.5472L89.7072 10.954C89.7072 10.562 89.6279 10.2213 89.4692 9.932C89.3106 9.64267 89.0912 9.41867 88.8112 9.26C88.5312 9.092 88.2046 9.008 87.8312 9.008C87.4579 9.008 87.1266 9.092 86.8372 9.26C86.5572 9.41867 86.3379 9.64733 86.1792 9.946C86.0206 10.2353 85.9412 10.5807 85.9412 10.982V11.318C85.9412 11.7287 86.0299 12.0927 86.2072 12.41C86.3939 12.718 86.6506 12.956 86.9772 13.124C87.3132 13.2827 87.7052 13.362 88.1532 13.362C88.5546 13.362 88.9046 13.3013 89.2032 13.18C89.5112 13.0587 89.7912 12.8767 90.0432 12.634L91.2052 13.894C90.8599 14.286 90.4259 14.5893 89.9032 14.804C89.3806 15.0093 88.7786 15.112 88.0972 15.112ZM93.4113 15V7.468H95.5813V10.408H98.8573V7.468H101.041V15H98.8573V12.186H95.5813V15H93.4113ZM103.132 15V7.468H105.302V10.408H108.578V7.468H110.762V15H108.578V12.186H105.302V15H103.132ZM116.381 15.112C115.578 15.112 114.864 14.944 114.239 14.608C113.623 14.272 113.133 13.8147 112.769 13.236C112.414 12.648 112.237 11.9807 112.237 11.234C112.237 10.478 112.414 9.81067 112.769 9.232C113.133 8.644 113.623 8.18667 114.239 7.86C114.864 7.524 115.578 7.356 116.381 7.356C117.174 7.356 117.883 7.524 118.509 7.86C119.134 8.18667 119.624 8.63933 119.979 9.218C120.333 9.79667 120.511 10.4687 120.511 11.234C120.511 11.9807 120.333 12.648 119.979 13.236C119.624 13.8147 119.134 14.272 118.509 14.608C117.883 14.944 117.174 15.112 116.381 15.112ZM116.381 13.32C116.745 13.32 117.071 13.236 117.361 13.068C117.65 12.9 117.879 12.662 118.047 12.354C118.215 12.0367 118.299 11.6633 118.299 11.234C118.299 10.7953 118.215 10.422 118.047 10.114C117.879 9.806 117.65 9.568 117.361 9.4C117.071 9.232 116.745 9.148 116.381 9.148C116.017 9.148 115.69 9.232 115.401 9.4C115.111 9.568 114.878 9.806 114.701 10.114C114.533 10.422 114.449 10.7953 114.449 11.234C114.449 11.6633 114.533 12.0367 114.701 12.354C114.878 12.662 115.111 12.9 115.401 13.068C115.69 13.236 116.017 13.32 116.381 13.32ZM125.597 15.112C124.785 15.112 124.062 14.9487 123.427 14.622C122.792 14.286 122.293 13.824 121.929 13.236C121.574 12.648 121.397 11.9807 121.397 11.234C121.397 10.478 121.574 9.81067 121.929 9.232C122.293 8.644 122.792 8.18667 123.427 7.86C124.062 7.524 124.785 7.356 125.597 7.356C126.39 7.356 127.081 7.524 127.669 7.86C128.257 8.18667 128.691 8.658 128.971 9.274L127.277 10.184C127.081 9.82933 126.834 9.568 126.535 9.4C126.246 9.232 125.928 9.148 125.583 9.148C125.21 9.148 124.874 9.232 124.575 9.4C124.276 9.568 124.038 9.806 123.861 10.114C123.693 10.422 123.609 10.7953 123.609 11.234C123.609 11.6727 123.693 12.046 123.861 12.354C124.038 12.662 124.276 12.9 124.575 13.068C124.874 13.236 125.21 13.32 125.583 13.32C125.928 13.32 126.246 13.2407 126.535 13.082C126.834 12.914 127.081 12.648 127.277 12.284L128.971 13.208C128.691 13.8147 128.257 14.286 127.669 14.622C127.081 14.9487 126.39 15.112 125.597 15.112ZM131.894 15V8.756L132.384 9.26H129.346V7.468H136.612V9.26H133.574L134.064 8.756V15H131.894ZM141.851 9.876C142.84 9.88533 143.591 10.1093 144.105 10.548C144.627 10.9773 144.889 11.5887 144.889 12.382C144.889 13.2127 144.595 13.8613 144.007 14.328C143.419 14.7853 142.602 15.014 141.557 15.014L137.777 15V7.468H139.947V9.876H141.851ZM141.361 13.46C141.781 13.4693 142.103 13.3807 142.327 13.194C142.551 13.0073 142.663 12.7273 142.663 12.354C142.663 11.9807 142.551 11.7147 142.327 11.556C142.103 11.388 141.781 11.2993 141.361 11.29L139.947 11.276V13.46H141.361Z" fill="#294030"/>
</svg>
