<svg width="134" height="22" viewBox="0 0 134 22" fill="none" xmlns="http://www.w3.org/2000/svg">
<rect x="12" y="20" width="122" height="2" rx="1" fill="#294030"/>
<rect x="1.5" y="1.5" width="19" height="19" rx="9.5" stroke="#294030" stroke-width="3"/>
<path d="M37.332 17V8.53L37.85 9.048H34.21V7.2H42.708V9.048H39.068L39.572 8.53V17H37.332ZM46.8804 17.112C46.0218 17.112 45.2658 16.944 44.6124 16.608C43.9684 16.272 43.4691 15.8147 43.1144 15.236C42.7598 14.648 42.5824 13.9807 42.5824 13.234C42.5824 12.478 42.7551 11.8107 43.1004 11.232C43.4551 10.644 43.9358 10.1867 44.5424 9.86C45.1491 9.524 45.8351 9.356 46.6004 9.356C47.3378 9.356 48.0004 9.51467 48.5884 9.832C49.1858 10.14 49.6571 10.588 50.0024 11.176C50.3478 11.7547 50.5204 12.45 50.5204 13.262C50.5204 13.346 50.5158 13.444 50.5064 13.556C50.4971 13.6587 50.4878 13.7567 50.4784 13.85H44.3604V12.576H49.3304L48.4904 12.954C48.4904 12.562 48.4111 12.2213 48.2524 11.932C48.0938 11.6427 47.8744 11.4187 47.5944 11.26C47.3144 11.092 46.9878 11.008 46.6144 11.008C46.2411 11.008 45.9098 11.092 45.6204 11.26C45.3404 11.4187 45.1211 11.6473 44.9624 11.946C44.8038 12.2353 44.7244 12.5807 44.7244 12.982V13.318C44.7244 13.7287 44.8131 14.0927 44.9904 14.41C45.1771 14.718 45.4338 14.956 45.7604 15.124C46.0964 15.2827 46.4884 15.362 46.9364 15.362C47.3378 15.362 47.6878 15.3013 47.9864 15.18C48.2944 15.0587 48.5744 14.8767 48.8264 14.634L49.9884 15.894C49.6431 16.286 49.2091 16.5893 48.6864 16.804C48.1638 17.0093 47.5618 17.112 46.8804 17.112ZM52.1945 17V9.468H54.4765L57.3185 14.62H56.4085L59.4465 9.468H61.4905L61.5185 17H59.5445V11.708L59.8805 11.932L57.2905 16.272H56.3665L53.7625 11.778L54.1685 11.68V17H52.1945ZM63.6105 17V9.468H71.1005V17H68.9165V10.77L69.4065 11.26H65.2905L65.7805 10.77V17H63.6105ZM76.8765 17.112C76.0179 17.112 75.2619 16.944 74.6085 16.608C73.9645 16.272 73.4652 15.8147 73.1105 15.236C72.7559 14.648 72.5785 13.9807 72.5785 13.234C72.5785 12.478 72.7512 11.8107 73.0965 11.232C73.4512 10.644 73.9319 10.1867 74.5385 9.86C75.1452 9.524 75.8312 9.356 76.5965 9.356C77.3339 9.356 77.9965 9.51467 78.5845 9.832C79.1819 10.14 79.6532 10.588 79.9985 11.176C80.3439 11.7547 80.5165 12.45 80.5165 13.262C80.5165 13.346 80.5119 13.444 80.5025 13.556C80.4932 13.6587 80.4839 13.7567 80.4745 13.85H74.3565V12.576H79.3265L78.4865 12.954C78.4865 12.562 78.4072 12.2213 78.2485 11.932C78.0899 11.6427 77.8705 11.4187 77.5905 11.26C77.3105 11.092 76.9839 11.008 76.6105 11.008C76.2372 11.008 75.9059 11.092 75.6165 11.26C75.3365 11.4187 75.1172 11.6473 74.9585 11.946C74.7999 12.2353 74.7205 12.5807 74.7205 12.982V13.318C74.7205 13.7287 74.8092 14.0927 74.9865 14.41C75.1732 14.718 75.4299 14.956 75.7565 15.124C76.0925 15.2827 76.4845 15.362 76.9325 15.362C77.3339 15.362 77.6839 15.3013 77.9825 15.18C78.2905 15.0587 78.5705 14.8767 78.8225 14.634L79.9845 15.894C79.6392 16.286 79.2052 16.5893 78.6825 16.804C78.1599 17.0093 77.5579 17.112 76.8765 17.112ZM86.6286 17.112C85.994 17.112 85.4386 16.972 84.9626 16.692C84.4866 16.412 84.1133 15.9873 83.8426 15.418C83.5813 14.8393 83.4506 14.1113 83.4506 13.234C83.4506 12.3473 83.5766 11.6193 83.8286 11.05C84.0806 10.4807 84.4446 10.056 84.9206 9.776C85.3966 9.496 85.966 9.356 86.6286 9.356C87.338 9.356 87.9726 9.51933 88.5326 9.846C89.102 10.1633 89.55 10.6113 89.8766 11.19C90.2126 11.7687 90.3806 12.45 90.3806 13.234C90.3806 14.0273 90.2126 14.7133 89.8766 15.292C89.55 15.8707 89.102 16.3187 88.5326 16.636C87.9726 16.9533 87.338 17.112 86.6286 17.112ZM82.1766 19.716V9.468H84.2626V11.008L84.2206 13.248L84.3606 15.474V19.716H82.1766ZM86.2506 15.32C86.6146 15.32 86.9366 15.236 87.2166 15.068C87.506 14.9 87.7346 14.662 87.9026 14.354C88.08 14.0367 88.1686 13.6633 88.1686 13.234C88.1686 12.7953 88.08 12.422 87.9026 12.114C87.7346 11.806 87.506 11.568 87.2166 11.4C86.9366 11.232 86.6146 11.148 86.2506 11.148C85.8866 11.148 85.56 11.232 85.2706 11.4C84.9813 11.568 84.7526 11.806 84.5846 12.114C84.4166 12.422 84.3326 12.7953 84.3326 13.234C84.3326 13.6633 84.4166 14.0367 84.5846 14.354C84.7526 14.662 84.9813 14.9 85.2706 15.068C85.56 15.236 85.8866 15.32 86.2506 15.32ZM96.2963 17V15.53L96.1563 15.208V12.576C96.1563 12.1093 96.0116 11.7453 95.7223 11.484C95.4423 11.2227 95.0083 11.092 94.4203 11.092C94.0189 11.092 93.6223 11.1573 93.2303 11.288C92.8476 11.4093 92.5209 11.5773 92.2503 11.792L91.4663 10.266C91.8769 9.97667 92.3716 9.75267 92.9503 9.594C93.5289 9.43533 94.1169 9.356 94.7143 9.356C95.8623 9.356 96.7536 9.62667 97.3883 10.168C98.0229 10.7093 98.3403 11.554 98.3403 12.702V17H96.2963ZM94.0003 17.112C93.4123 17.112 92.9083 17.014 92.4883 16.818C92.0683 16.6127 91.7463 16.3373 91.5223 15.992C91.2983 15.6467 91.1863 15.2593 91.1863 14.83C91.1863 14.382 91.2936 13.99 91.5083 13.654C91.7323 13.318 92.0823 13.0567 92.5583 12.87C93.0343 12.674 93.6549 12.576 94.4203 12.576H96.4223V13.85H94.6583C94.1449 13.85 93.7903 13.934 93.5943 14.102C93.4076 14.27 93.3143 14.48 93.3143 14.732C93.3143 15.012 93.4216 15.236 93.6363 15.404C93.8603 15.5627 94.1636 15.642 94.5463 15.642C94.9103 15.642 95.2369 15.558 95.5263 15.39C95.8156 15.2127 96.0256 14.956 96.1563 14.62L96.4923 15.628C96.3336 16.1133 96.0443 16.482 95.6243 16.734C95.2043 16.986 94.6629 17.112 94.0003 17.112ZM101.848 17V10.756L102.338 11.26H99.2995V9.468H106.566V11.26H103.528L104.018 10.756V17H101.848ZM108.793 19.828C108.401 19.828 108.013 19.7673 107.631 19.646C107.248 19.5247 106.935 19.3567 106.693 19.142L107.491 17.588C107.659 17.7373 107.85 17.854 108.065 17.938C108.289 18.022 108.508 18.064 108.723 18.064C109.031 18.064 109.273 17.9893 109.451 17.84C109.637 17.7 109.805 17.462 109.955 17.126L110.347 16.202L110.515 15.964L113.217 9.468H115.317L111.915 17.462C111.672 18.0687 111.392 18.5447 111.075 18.89C110.767 19.2353 110.421 19.478 110.039 19.618C109.665 19.758 109.25 19.828 108.793 19.828ZM110.081 17.294L106.721 9.468H108.975L111.579 15.768L110.081 17.294ZM120.808 17.112C120.174 17.112 119.618 16.972 119.142 16.692C118.666 16.412 118.293 15.9873 118.022 15.418C117.761 14.8393 117.63 14.1113 117.63 13.234C117.63 12.3473 117.756 11.6193 118.008 11.05C118.26 10.4807 118.624 10.056 119.1 9.776C119.576 9.496 120.146 9.356 120.808 9.356C121.518 9.356 122.152 9.51933 122.712 9.846C123.282 10.1633 123.73 10.6113 124.056 11.19C124.392 11.7687 124.56 12.45 124.56 13.234C124.56 14.0273 124.392 14.7133 124.056 15.292C123.73 15.8707 123.282 16.3187 122.712 16.636C122.152 16.9533 121.518 17.112 120.808 17.112ZM116.356 19.716V9.468H118.442V11.008L118.4 13.248L118.54 15.474V19.716H116.356ZM120.43 15.32C120.794 15.32 121.116 15.236 121.396 15.068C121.686 14.9 121.914 14.662 122.082 14.354C122.26 14.0367 122.348 13.6633 122.348 13.234C122.348 12.7953 122.26 12.422 122.082 12.114C121.914 11.806 121.686 11.568 121.396 11.4C121.116 11.232 120.794 11.148 120.43 11.148C120.066 11.148 119.74 11.232 119.45 11.4C119.161 11.568 118.932 11.806 118.764 12.114C118.596 12.422 118.512 12.7953 118.512 13.234C118.512 13.6633 118.596 14.0367 118.764 14.354C118.932 14.662 119.161 14.9 119.45 15.068C119.74 15.236 120.066 15.32 120.43 15.32ZM130.476 17V15.53L130.336 15.208V12.576C130.336 12.1093 130.191 11.7453 129.902 11.484C129.622 11.2227 129.188 11.092 128.6 11.092C128.199 11.092 127.802 11.1573 127.41 11.288C127.027 11.4093 126.701 11.5773 126.43 11.792L125.646 10.266C126.057 9.97667 126.551 9.75267 127.13 9.594C127.709 9.43533 128.297 9.356 128.894 9.356C130.042 9.356 130.933 9.62667 131.568 10.168C132.203 10.7093 132.52 11.554 132.52 12.702V17H130.476ZM128.18 17.112C127.592 17.112 127.088 17.014 126.668 16.818C126.248 16.6127 125.926 16.3373 125.702 15.992C125.478 15.6467 125.366 15.2593 125.366 14.83C125.366 14.382 125.473 13.99 125.688 13.654C125.912 13.318 126.262 13.0567 126.738 12.87C127.214 12.674 127.835 12.576 128.6 12.576H130.602V13.85H128.838C128.325 13.85 127.97 13.934 127.774 14.102C127.587 14.27 127.494 14.48 127.494 14.732C127.494 15.012 127.601 15.236 127.816 15.404C128.04 15.5627 128.343 15.642 128.726 15.642C129.09 15.642 129.417 15.558 129.706 15.39C129.995 15.2127 130.205 14.956 130.336 14.62L130.672 15.628C130.513 16.1133 130.224 16.482 129.804 16.734C129.384 16.986 128.843 17.112 128.18 17.112Z" fill="#294030"/>
</svg>
