<svg width="33" height="32" viewBox="0 0 33 32" fill="none" xmlns="http://www.w3.org/2000/svg">
<path fill-rule="evenodd" clip-rule="evenodd" d="M16.5 24C21.0563 24 24.75 20.4183 24.75 16C24.75 11.5817 21.0563 8 16.5 8C11.9437 8 8.25 11.5817 8.25 16C8.25 20.4183 11.9437 24 16.5 24ZM16.5 21.3333C19.5376 21.3333 22 18.9455 22 16C22 13.0545 19.5376 10.6667 16.5 10.6667C13.4624 10.6667 11 13.0545 11 16C11 18.9455 13.4624 21.3333 16.5 21.3333Z" fill="#E6E6E6"/>
<path d="M24.75 6.66667C23.9906 6.66667 23.375 7.26362 23.375 8C23.375 8.73638 23.9906 9.33333 24.75 9.33333C25.5094 9.33333 26.125 8.73638 26.125 8C26.125 7.26362 25.5094 6.66667 24.75 6.66667Z" fill="#E6E6E6"/>
<path fill-rule="evenodd" clip-rule="evenodd" d="M2.2742 5.70141C1.375 7.4127 1.375 9.65291 1.375 14.1333L1.375 17.8667C1.375 22.3471 1.375 24.5873 2.2742 26.2986C3.06515 27.8039 4.32724 29.0277 5.87958 29.7947C7.64435 30.6667 9.95457 30.6667 14.575 30.6667L18.425 30.6667C23.0454 30.6667 25.3557 30.6667 27.1204 29.7947C28.6728 29.0277 29.9348 27.8039 30.7258 26.2986C31.625 24.5873 31.625 22.3471 31.625 17.8667L31.625 14.1333C31.625 9.65291 31.625 7.4127 30.7258 5.70141C29.9348 4.19611 28.6728 2.97227 27.1204 2.20528C25.3557 1.33333 23.0454 1.33333 18.425 1.33333L14.575 1.33333C9.95457 1.33333 7.64435 1.33333 5.87958 2.20528C4.32724 2.97227 3.06515 4.19611 2.2742 5.70141ZM18.425 4H14.575C12.2194 4 10.6181 4.00207 9.38035 4.10014C8.17471 4.19566 7.55815 4.36879 7.12805 4.5813C6.09316 5.09262 5.25177 5.90852 4.72446 6.91205C4.50532 7.32912 4.32677 7.92699 4.22827 9.0961C4.12714 10.2963 4.125 11.8491 4.125 14.1333V17.8667C4.125 20.1509 4.12714 21.7037 4.22827 22.9039C4.32677 24.073 4.50532 24.6709 4.72446 25.0879C5.25177 26.0915 6.09316 26.9074 7.12805 27.4187C7.55815 27.6312 8.17471 27.8043 9.38035 27.8999C10.6181 27.9979 12.2194 28 14.575 28L18.425 28C20.7806 28 22.3819 27.9979 23.6196 27.8999C24.8253 27.8043 25.4418 27.6312 25.8719 27.4187C26.9068 26.9074 27.7482 26.0915 28.2755 25.0879C28.4947 24.6709 28.6732 24.073 28.7717 22.9039C28.8729 21.7037 28.875 20.1509 28.875 17.8667L28.875 14.1333C28.875 11.8491 28.8729 10.2963 28.7717 9.0961C28.6732 7.92699 28.4947 7.32912 28.2755 6.91205C27.7482 5.90852 26.9068 5.09262 25.8719 4.5813C25.4418 4.36879 24.8253 4.19566 23.6196 4.10014C22.3819 4.00207 20.7806 4 18.425 4Z" fill="#E6E6E6"/>
</svg>
