<svg width="28" height="28" viewBox="0 0 28 28" fill="none" xmlns="http://www.w3.org/2000/svg">
<path d="M1.16675 14C1.16675 13.3557 1.68908 12.8333 2.33341 12.8333H25.6667C26.3111 12.8333 26.8334 13.3557 26.8334 14C26.8334 14.6443 26.3111 15.1667 25.6667 15.1667H2.33342C1.68908 15.1667 1.16675 14.6443 1.16675 14Z" fill="#E6E6E6"/>
<path d="M1.16675 4.66667C1.16675 4.02233 1.68908 3.5 2.33341 3.5H25.6667C26.3111 3.5 26.8334 4.02233 26.8334 4.66667C26.8334 5.311 26.3111 5.83333 25.6667 5.83333H2.33342C1.68908 5.83333 1.16675 5.311 1.16675 4.66667Z" fill="#E6E6E6"/>
<path d="M1.16675 23.3333C1.16675 22.689 1.68908 22.1667 2.33341 22.1667H25.6667C26.3111 22.1667 26.8334 22.689 26.8334 23.3333C26.8334 23.9777 26.3111 24.5 25.6667 24.5H2.33342C1.68908 24.5 1.16675 23.9777 1.16675 23.3333Z" fill="#E6E6E6"/>
</svg>
