<svg width="248" height="226" viewBox="0 0 248 226" fill="none" xmlns="http://www.w3.org/2000/svg">
<path d="M214.541 190.631C219.637 184.183 223.834 177.073 227.016 169.495L238.296 142.635C247.108 121.65 249.359 98.488 244.751 76.1993L239.798 52.2438C235.648 32.1686 222.185 15.2701 203.544 6.73912L201.621 5.85893C171.788 -7.79475 136.48 4.10324 120.995 33.0283L110.173 53.2444C100.271 71.7406 77.4188 78.9561 58.6908 69.4999L35.1524 57.6148C18.0989 49.004 -1.73742 62.6305 0.181426 81.638C0.64811 86.2609 2.43627 90.6515 5.33215 94.285L19.7401 112.363C28.8048 123.737 34.9362 137.164 37.595 151.463C45.0512 191.561 78.8712 221.42 119.585 223.849L137.944 224.944C167.549 226.711 196.15 213.898 214.541 190.631Z" fill="#7DAAA3"/>
</svg>
