<svg width="189" height="134" viewBox="0 0 189 134" fill="none" xmlns="http://www.w3.org/2000/svg">
<path d="M1.69985 80.4914C-3.55257 55.8305 5.70034 30.3315 25.5455 14.7778C40.2366 3.26373 59.1151 -1.49338 77.5082 1.68403L84.2804 2.85394C96.9852 5.0487 108.988 10.2265 119.303 17.9621L143.83 36.3563C147.229 38.9055 150.92 41.0398 154.826 42.7139L174.759 51.259C184.026 55.2315 189.702 64.6988 188.838 74.7442C187.7 87.9753 175.78 97.6011 162.606 95.9281L157.349 95.2606C151.866 94.5643 146.299 95.4795 141.328 97.8945L103.61 116.217L80.563 128.016C50.2545 143.533 13.3602 127.102 4.61829 94.1939L1.69985 80.4914Z" fill="#294030"/>
</svg>
