<svg width="26" height="26" viewBox="0 0 26 26" fill="none" xmlns="http://www.w3.org/2000/svg">
<path fill-rule="evenodd" clip-rule="evenodd" d="M25.0377 4.86923C25.382 3.19031 23.733 1.79511 22.1343 2.41279L2.53769 9.98421C0.752381 10.674 0.672832 13.1705 2.4106 13.9725L6.67819 15.9422L8.70835 23.0477C8.8138 23.4168 9.10668 23.7025 9.47826 23.7988C9.84983 23.8951 10.2446 23.7876 10.516 23.5162L13.6433 20.3889L18.024 23.6743C19.2955 24.628 21.1271 23.9334 21.4464 22.3764L25.0377 4.86923ZM3.31856 12.0053L22.9152 4.43385L19.324 21.941L14.1917 18.0918C13.7604 17.7683 13.1569 17.8112 12.7756 18.1924L11.4362 19.5318L11.8387 17.3185L19.7244 9.43282C20.1081 9.04905 20.1487 8.44052 19.8193 8.00921C19.4898 7.5779 18.8921 7.45692 18.4209 7.72619L7.5305 13.9492L3.31856 12.0053ZM8.85835 15.6859L9.51527 17.9851L9.76748 16.598C9.80689 16.3812 9.91149 16.1816 10.0673 16.0258L12.4721 13.6209L8.85835 15.6859Z" fill="#E6E6E6" stroke="#1B3322" stroke-linejoin="round"/>
</svg>
