<svg width="26" height="26" viewBox="0 0 26 26" fill="none" xmlns="http://www.w3.org/2000/svg">
<path d="M6.51518 8.67323C6.63896 7.69418 7.91135 6.36357 8.92113 6.51122L8.91952 6.5096C9.90223 6.69634 10.6801 8.38775 11.1188 9.14829C11.4296 9.70011 11.2278 10.2592 10.9379 10.4951C10.5468 10.8103 9.93525 11.2453 10.0636 11.6819C10.2917 12.4583 13 15.1666 14.3321 15.9365C14.8363 16.2279 15.2019 15.4593 15.5141 15.0656C15.741 14.7626 16.3005 14.5816 16.8511 14.8805C17.6733 15.3594 18.4479 15.9159 19.1642 16.5424C19.5219 16.8414 19.6058 17.2833 19.358 17.7503C18.9214 18.5729 17.6587 19.6576 16.7421 19.4372C15.1411 19.0523 8.66668 16.5424 6.58704 9.2711C6.47008 8.9271 6.49952 8.79706 6.51518 8.67323Z" fill="#E6E6E6"/>
<path fill-rule="evenodd" clip-rule="evenodd" d="M13 24.9166C11.6744 24.9166 10.9411 24.7744 9.75001 24.3749L7.46897 25.5154C6.02835 26.2357 4.33334 25.1882 4.33334 23.5775V21.1249C2.00044 18.9496 1.08334 16.4413 1.08334 12.9999C1.08334 6.41853 6.41862 1.08325 13 1.08325C19.5814 1.08325 24.9167 6.41853 24.9167 12.9999C24.9167 19.5813 19.5814 24.9166 13 24.9166ZM6.50001 20.1828L5.81096 19.5403C3.99846 17.8502 3.25001 15.9607 3.25001 12.9999C3.25001 7.61514 7.61523 3.24992 13 3.24992C18.3848 3.24992 22.75 7.61514 22.75 12.9999C22.75 18.3847 18.3848 22.7499 13 22.7499C11.9321 22.7499 11.4314 22.6535 10.439 22.3207L9.58586 22.0346L6.50001 23.5775V20.1828Z" fill="#E6E6E6"/>
</svg>
