<svg width="39" height="39" viewBox="0 0 39 39" fill="none" xmlns="http://www.w3.org/2000/svg">
<path fill-rule="evenodd" clip-rule="evenodd" d="M15.4312 11.5891C14.9283 11.3017 14.3104 11.3038 13.8094 11.5945C13.3084 11.8853 13 12.4207 13 13V26C13 26.5793 13.3084 27.1147 13.8094 27.4055C14.3104 27.6962 14.9283 27.6983 15.4312 27.4109L26.8062 20.9109C27.3125 20.6216 27.625 20.0831 27.625 19.5C27.625 18.9169 27.3125 18.3784 26.8062 18.0891L15.4312 11.5891ZM22.7247 19.5L16.25 23.1998V15.8002L22.7247 19.5Z" fill="#E6E6E6"/>
<path fill-rule="evenodd" clip-rule="evenodd" d="M0 19.5C0 13.4067 0 10.36 1.55174 8.22424C2.05288 7.53448 2.65948 6.92788 3.34924 6.42674C5.48503 4.875 8.53169 4.875 14.625 4.875H24.375C30.4683 4.875 33.515 4.875 35.6508 6.42674C36.3405 6.92788 36.9471 7.53448 37.4483 8.22424C39 10.36 39 13.4067 39 19.5C39 25.5933 39 28.64 37.4483 30.7758C36.9471 31.4655 36.3405 32.0721 35.6508 32.5733C33.515 34.125 30.4683 34.125 24.375 34.125H14.625C8.53169 34.125 5.48503 34.125 3.34924 32.5733C2.65948 32.0721 2.05288 31.4655 1.55174 30.7758C0 28.64 0 25.5933 0 19.5ZM14.625 8.125H24.375C27.4941 8.125 29.5723 8.12946 31.1469 8.30006C32.6607 8.46407 33.3189 8.74978 33.7405 9.05604C34.1543 9.35673 34.5183 9.72069 34.819 10.1345C35.1252 10.5561 35.4109 11.2143 35.5749 12.7281C35.7455 14.3027 35.75 16.3809 35.75 19.5C35.75 22.6191 35.7455 24.6973 35.5749 26.2719C35.4109 27.7857 35.1252 28.4439 34.819 28.8655C34.5183 29.2793 34.1543 29.6433 33.7405 29.944C33.3189 30.2502 32.6607 30.5359 31.1469 30.6999C29.5723 30.8705 27.4941 30.875 24.375 30.875H14.625C11.5059 30.875 9.42772 30.8705 7.85311 30.6999C6.33934 30.5359 5.68108 30.2502 5.25955 29.944C4.84569 29.6433 4.48173 29.2793 4.18104 28.8655C3.87478 28.4439 3.58907 27.7857 3.42506 26.2719C3.25446 24.6973 3.25 22.6191 3.25 19.5C3.25 16.3809 3.25446 14.3027 3.42506 12.7281C3.58907 11.2143 3.87478 10.5561 4.18104 10.1345C4.48173 9.72069 4.84569 9.35673 5.25955 9.05604C5.68108 8.74978 6.33934 8.46407 7.85311 8.30006C9.42772 8.12946 11.5059 8.125 14.625 8.125Z" fill="#E6E6E6"/>
</svg>
